<svg width="18" height="23" viewBox="0 0 18 23" fill="none" xmlns="http://www.w3.org/2000/svg">
<path d="M11.7 5.52H10.8V4.6H11.7V5.52ZM7.2 5.52H6.3V4.6H7.2V5.52ZM12.177 2.907L13.356 1.702C13.4384 1.61323 13.4842 1.4966 13.4842 1.3755C13.4842 1.2544 13.4384 1.13777 13.356 1.049C13.2709 0.96503 13.1561 0.917952 13.0365 0.917952C12.9169 0.917952 12.8021 0.96503 12.717 1.049L11.385 2.41C10.645 2.03757 9.82845 1.84242 9 1.84C8.136 1.84 7.326 2.052 6.606 2.42L5.265 1.049C5.22373 1.00746 5.17466 0.974487 5.12059 0.951989C5.06653 0.92949 5.00856 0.917908 4.95 0.917908C4.89144 0.917908 4.83347 0.92949 4.77941 0.951989C4.72534 0.974487 4.67627 1.00746 4.635 1.049C4.54871 1.13576 4.50028 1.25314 4.50028 1.3755C4.50028 1.49786 4.54871 1.61524 4.635 1.702L5.814 2.907C5.12371 3.42559 4.56408 4.09823 4.1797 4.87133C3.79532 5.64443 3.59681 6.49662 3.6 7.36H14.4C14.4 5.52 13.5 3.91 12.177 2.907ZM16.65 8.28C15.904 8.28 15.3 8.898 15.3 9.66V16.1C15.3 16.862 15.904 17.48 16.65 17.48C17.396 17.48 18 16.862 18 16.1V9.66C18 8.898 17.396 8.28 16.65 8.28ZM1.35 8.28C0.604 8.28 0 8.898 0 9.66V16.1C0 16.862 0.604 17.48 1.35 17.48C2.096 17.48 2.7 16.862 2.7 16.1V9.66C2.7 8.898 2.096 8.28 1.35 8.28ZM3.6 17.48C3.6 17.988 4.003 18.4 4.5 18.4H5.4V21.62C5.4 22.382 6.004 23 6.75 23C7.496 23 8.1 22.382 8.1 21.62V18.4H9.9V21.62C9.9 22.382 10.504 23 11.25 23C11.996 23 12.6 22.382 12.6 21.62V18.4H13.5C13.6195 18.3987 13.7376 18.3739 13.8475 18.3269C13.9574 18.28 14.057 18.2118 14.1406 18.1264C14.2241 18.041 14.2901 17.9399 14.3346 17.829C14.3791 17.7181 14.4013 17.5995 14.4 17.48V8.28H3.6V17.48Z" fill="white"/>
</svg>
