<svg width="18" height="22" viewBox="0 0 18 22" fill="none" xmlns="http://www.w3.org/2000/svg">
<path d="M12.972 21.155C11.527 21.186 11.063 20.325 9.42404 20.325C7.77404 20.325 7.26704 21.134 5.89704 21.186C4.48404 21.239 3.41704 19.8 2.51004 18.53C0.666036 15.936 -0.746964 11.16 1.15104 7.94601C2.09004 6.35101 3.77204 5.34301 5.59504 5.31101C6.97504 5.29101 8.29104 6.22501 9.14304 6.22501C9.98404 6.22501 11.581 5.10101 13.253 5.26901C13.953 5.30101 15.916 5.54201 17.178 7.34801C17.081 7.41101 14.838 8.69201 14.86 11.348C14.892 14.519 17.718 15.579 17.75 15.59C17.718 15.663 17.297 17.102 16.262 18.561C15.366 19.863 14.417 21.134 12.972 21.155ZM10.103 1.76201C10.89 0.891012 12.196 0.229012 13.274 0.187012C13.414 1.41601 12.907 2.65501 12.152 3.53701C11.408 4.42901 10.179 5.12201 8.97104 5.02701C8.80904 3.82001 9.41304 2.56001 10.103 1.76201Z" fill="white"/>
</svg>
