<svg width="56" height="40" viewBox="0 0 56 40" fill="none" xmlns="http://www.w3.org/2000/svg">
<path d="M2 12.2864C9.74894 9.56555 17.9866 8.51821 26.1699 9.21349" stroke="#00BF91" stroke-width="2.5" stroke-linecap="round" stroke-linejoin="round"/>
<path d="M42.6263 12.2864C45.5718 13.18 48.1979 14.9027 50.1908 17.2486C52.1837 19.5946 53.4591 22.4646 53.8648 25.5159C53.8902 25.7119 53.8583 25.9112 53.773 26.0895C53.6877 26.2679 53.5525 26.4177 53.3839 26.5209C50.9099 28.0589 48.11 28.996 45.2087 29.2573C38.1683 29.8536 33.1045 26.141 31.8157 25.1408" stroke="#00BF91" stroke-width="2.5" stroke-linecap="round" stroke-linejoin="round"/>
<path d="M44.6845 29.2573C42.2316 29.912 40.063 31.3572 38.5145 33.369C37.4845 34.7357 36.7805 36.3197 36.4563 38" stroke="#00BF91" stroke-width="2.5" stroke-linecap="round" stroke-linejoin="round"/>
<path d="M33.369 16.3981C37.3449 16.3981 40.568 13.175 40.568 9.19904C40.568 5.22312 37.3449 2 33.369 2C29.393 2 26.1699 5.22312 26.1699 9.19904C26.1699 13.175 29.393 16.3981 33.369 16.3981Z" stroke="#00BF91" stroke-width="2.5" stroke-linecap="round" stroke-linejoin="round"/>
<path d="M33.3689 11.7718C34.7899 11.7718 35.9417 10.6199 35.9417 9.19902C35.9417 7.7781 34.7899 6.62622 33.3689 6.62622C31.948 6.62622 30.7961 7.7781 30.7961 9.19902C30.7961 10.6199 31.948 11.7718 33.3689 11.7718Z" fill="#00BF91"/>
<path d="M40.4718 8.25173C41.9482 7.20337 44.4729 6.65996 46.4926 8.00647C49.2818 9.87235 49.2915 14.162 47.9353 15.1334" stroke="#00BF91" stroke-width="2.5" stroke-linecap="round" stroke-linejoin="round"/>
<path d="M28.81 25.689C28.5607 25.3063 28.4279 24.8594 28.4279 24.4026C28.4279 23.9458 28.5607 23.4989 28.81 23.1162C29.0437 22.7938 29.3512 22.5321 29.7068 22.3531C30.0624 22.174 30.4557 22.0828 30.8539 22.0871" stroke="#00BF91" stroke-width="2.5" stroke-linecap="round" stroke-linejoin="round"/>
</svg>
