<svg width="79" height="28" viewBox="0 0 79 28" fill="none" xmlns="http://www.w3.org/2000/svg">
<g clip-path="url(#clip0)">
<path d="M4.18874 24.8144C3.97429 24.8144 3.72179 24.8144 3.43124 24.8144C3.14069 24.8144 2.84668 24.7763 2.54229 24.7383C2.23791 24.7002 1.93006 24.6518 1.62914 24.5965C1.36109 24.5473 1.09823 24.4732 0.84396 24.3751C0.26632 24.1364 -1.7754e-05 23.7905 -1.7754e-05 23.2682V14.275C-0.00643559 14.2062 0.000967811 14.1368 0.0217575 14.0708C0.0425472 14.0049 0.076304 13.9438 0.121045 13.8911C0.258729 13.7669 0.421518 13.6737 0.598376 13.6178C1.10593 13.4528 1.63032 13.3449 2.16181 13.2962C2.82246 13.2263 3.48636 13.1916 4.15069 13.1924C5.7245 13.1924 6.93859 13.4553 7.76873 13.9707C8.15232 14.2068 8.46402 14.5434 8.67009 14.9439C8.87616 15.3445 8.96875 15.7938 8.93785 16.2432C8.95088 16.7065 8.80025 17.1596 8.5124 17.523C8.2021 17.9026 7.78717 18.1829 7.31907 18.3289L6.2641 18.6748L7.33636 18.9757C7.89419 19.1224 8.39758 19.4276 8.78565 19.8543C9.1648 20.2846 9.36308 20.8447 9.33908 21.4177C9.33908 22.5765 8.92747 23.4066 8.08003 23.9531C7.23259 24.4996 5.88015 24.8144 4.18874 24.8144ZM2.58726 22.701L2.83976 22.7736C3.08972 22.8396 3.34595 22.879 3.60418 22.8912C3.89819 22.912 4.17836 22.9223 4.44124 22.9223C4.95438 22.9379 5.4615 22.8084 5.90437 22.5488C6.12032 22.4134 6.2961 22.2226 6.41349 21.9964C6.53087 21.7701 6.58558 21.5166 6.57194 21.2621C6.59058 21.0288 6.54692 20.7947 6.44543 20.5838C6.34394 20.3729 6.18825 20.1928 5.9943 20.0618C5.54217 19.8172 5.0304 19.7045 4.51734 19.7367H2.58726V22.701ZM4.18874 15.0325C3.99158 15.0325 3.76329 15.0325 3.49696 15.0325C3.28585 15.0399 3.07551 15.0619 2.86743 15.0983L2.58034 15.1467V18.0591H4.33747C4.84308 18.0995 5.34697 17.9625 5.76255 17.6717C5.93065 17.5279 6.06334 17.3474 6.15033 17.144C6.23731 16.9407 6.27624 16.72 6.2641 16.4991C6.26674 16.2803 6.21541 16.0642 6.11466 15.87C6.01391 15.6757 5.86684 15.5092 5.68646 15.3854C5.23497 15.1175 4.71229 14.9944 4.18874 15.0325Z" fill="#0F0F1A"/>
<path d="M15.2193 24.8143C14.5388 24.8207 13.8617 24.7191 13.2131 24.5134C12.6328 24.3281 12.0962 24.0269 11.6358 23.6279C11.1832 23.2186 10.8285 22.7126 10.5981 22.1475C10.3251 21.4747 10.1933 20.753 10.2107 20.0272C10.1875 19.3287 10.3125 18.6332 10.5774 17.9864C10.7989 17.4687 11.1301 17.0051 11.5481 16.6277C11.9661 16.2503 12.461 15.968 12.9986 15.8004C13.5382 15.6254 14.102 15.5366 14.6693 15.5375C15.2581 15.5315 15.8435 15.6287 16.3988 15.8246C16.8947 15.9962 17.3536 16.2603 17.7512 16.6028C18.1166 16.9302 18.4089 17.3309 18.609 17.7789C18.8166 18.2519 18.9215 18.7635 18.9169 19.2801C18.9287 19.4164 18.9117 19.5536 18.867 19.6829C18.8223 19.8123 18.7509 19.9307 18.6574 20.0306C18.4217 20.2289 18.1307 20.3497 17.8238 20.3765L12.6354 21.1513L12.798 21.5457C12.8814 21.7997 13.0167 22.0336 13.1953 22.2325C13.374 22.4314 13.592 22.5909 13.8357 22.7009C14.3544 22.941 14.9211 23.0593 15.4925 23.0468C16.0305 23.0498 16.5662 22.9765 17.0836 22.8289C17.4418 22.7324 17.7894 22.6003 18.1213 22.4346C18.2216 22.5242 18.3068 22.6293 18.3738 22.7459C18.4806 22.9107 18.5371 23.103 18.5364 23.2993C18.543 23.5075 18.4868 23.7128 18.3752 23.8887C18.2635 24.0645 18.1015 24.2026 17.9103 24.2851C17.5019 24.499 17.0595 24.6406 16.6028 24.7037C16.1449 24.7737 15.6825 24.8107 15.2193 24.8143ZM14.6728 17.2324C14.3474 17.2259 14.0244 17.2883 13.725 17.4157C13.4833 17.5233 13.2664 17.6795 13.0879 17.8747C12.9093 18.07 12.773 18.2999 12.6873 18.5502C12.6066 18.7728 12.5577 19.0057 12.5421 19.242L12.5144 19.6744L16.5682 19.0241L16.5198 18.6782C16.4486 18.3124 16.2677 17.977 16.001 17.7166C15.8251 17.5485 15.6162 17.4187 15.3876 17.3353C15.159 17.252 14.9156 17.2169 14.6728 17.2324Z" fill="#0F0F1A"/>
<path d="M21.8742 24.6033C21.6347 24.612 21.3948 24.597 21.1582 24.5584C21.0033 24.5325 20.8564 24.4709 20.7293 24.3785C20.6218 24.2953 20.5412 24.1822 20.4976 24.0534C20.4268 23.8299 20.3952 23.5958 20.4042 23.3616V14.2577C20.3928 14.1188 20.4362 13.981 20.5253 13.8738C20.6629 13.7495 20.8257 13.6563 21.0026 13.6005C21.4652 13.4442 21.9428 13.3364 22.4277 13.2788C22.9738 13.2098 23.5237 13.1751 24.0741 13.175C25.7586 13.175 27.0557 13.5209 27.9274 14.2369C28.3481 14.5724 28.6835 15.0027 28.9059 15.4927C29.1284 15.9827 29.2316 16.5184 29.2072 17.056C29.2151 17.5956 29.1212 18.1319 28.9304 18.6367C28.7554 19.0865 28.4824 19.4918 28.1314 19.8231C27.739 20.1756 27.2754 20.4399 26.7721 20.5979C26.1363 20.7954 25.473 20.89 24.8074 20.8781H23.0779V24.4926L22.7321 24.548C22.4475 24.5837 22.161 24.6022 21.8742 24.6033ZM24.3439 15.1847C24.1295 15.1847 23.9565 15.1847 23.8147 15.1847C23.6603 15.1929 23.5066 15.2114 23.3547 15.24L23.071 15.2919V18.9272H24.4546C24.9842 18.957 25.5065 18.7935 25.9246 18.4672C26.1148 18.287 26.263 18.0672 26.3586 17.8233C26.4543 17.5794 26.495 17.3174 26.4781 17.056C26.4902 16.7976 26.4453 16.5397 26.3467 16.3007C26.2481 16.0616 26.0981 15.8471 25.9073 15.6724C25.4637 15.3235 24.9072 15.1499 24.3439 15.1847Z" fill="#0F0F1A"/>
<path d="M31.4105 24.6587C31.1789 24.6601 30.9475 24.6427 30.7187 24.6068C30.568 24.5855 30.4245 24.5286 30.3002 24.4408C30.1865 24.3518 30.1011 24.2316 30.0546 24.0949C29.9803 23.8876 29.9462 23.6681 29.9543 23.4481V17.6751C29.9483 17.466 29.9922 17.2586 30.0823 17.0698C30.1677 16.8914 30.289 16.7324 30.4385 16.6028C30.6505 16.4384 30.8831 16.3024 31.1303 16.1981C31.4327 16.0629 31.7435 15.9474 32.0608 15.8523C32.4013 15.7526 32.7479 15.6752 33.0984 15.6205C33.4539 15.5743 33.8124 15.5558 34.1707 15.5652C34.6151 15.5416 35.0569 15.646 35.4436 15.8661C35.579 15.9662 35.6859 16.0999 35.7538 16.254C35.8218 16.4081 35.8484 16.5772 35.831 16.7447C35.8315 16.8913 35.8093 17.0371 35.7653 17.177C35.7445 17.255 35.7179 17.3313 35.6857 17.4053C35.4782 17.4053 35.2637 17.4053 35.0458 17.4434C34.7556 17.4679 34.4669 17.5084 34.1811 17.5644C33.9044 17.6175 33.645 17.6728 33.4028 17.7304C33.1723 17.7833 32.9476 17.8586 32.7318 17.9553L32.5312 18.0487V24.5584C32.4482 24.5757 32.3479 24.5895 32.2199 24.6103C31.9514 24.6442 31.6811 24.6603 31.4105 24.6587Z" fill="#0F0F1A"/>
<path d="M40.7738 24.8143C40.1116 24.8231 39.4532 24.713 38.8299 24.4891C38.2809 24.2882 37.7793 23.9761 37.3564 23.5725C36.9404 23.1608 36.6163 22.6657 36.4052 22.1198C36.167 21.495 36.0496 20.8306 36.0593 20.162C36.0508 19.5003 36.1682 18.8429 36.4052 18.225C36.6163 17.6791 36.9404 17.184 37.3564 16.7723C37.7793 16.3687 38.2809 16.0566 38.8299 15.8557C39.4532 15.6318 40.1116 15.5217 40.7738 15.5305C41.4363 15.5258 42.0941 15.643 42.7142 15.8764C43.2633 16.0836 43.7646 16.4001 44.1877 16.8069C44.6058 17.2169 44.9302 17.7125 45.1389 18.2596C45.3747 18.8706 45.4921 19.521 45.4848 20.1759C45.4958 20.8603 45.3785 21.5408 45.1389 22.182C44.9327 22.7286 44.6092 23.2233 44.1912 23.6313C43.7699 24.0287 43.2687 24.3317 42.7212 24.5203C42.0934 24.7278 41.4349 24.8272 40.7738 24.8143ZM40.7738 17.4053C40.473 17.3939 40.1743 17.4587 39.9052 17.5935C39.6362 17.7283 39.4055 17.9289 39.2346 18.1766C38.871 18.7724 38.6984 19.4652 38.7399 20.162C38.6978 20.8686 38.8794 21.5706 39.2588 22.1682C39.4312 22.4153 39.6626 22.6153 39.9321 22.75C40.2015 22.8847 40.5004 22.9499 40.8015 22.9395C41.1027 22.9478 41.401 22.8783 41.6676 22.7378C41.9342 22.5972 42.16 22.3903 42.3234 22.1371C42.6834 21.5385 42.8557 20.8457 42.818 20.1482C42.8554 19.45 42.678 18.7571 42.3095 18.1628C42.1376 17.9179 41.9068 17.7202 41.6384 17.5878C41.3701 17.4554 41.0727 17.3927 40.7738 17.4053Z" fill="#0F0F1A"/>
<path d="M50.3862 28.0174C49.494 28.0579 48.6036 27.907 47.7747 27.5746C47.5284 27.4826 47.3176 27.3148 47.1728 27.0954C47.028 26.876 46.9565 26.6162 46.9687 26.3536C46.964 26.1398 47.0127 25.9281 47.1106 25.7379C47.1594 25.6477 47.2161 25.5621 47.2801 25.482C47.6364 25.6565 48.0066 25.8011 48.3869 25.9143C48.8916 26.067 49.4162 26.1439 49.9434 26.1426C50.577 26.1698 51.207 26.0341 51.7732 25.7483C52.0249 25.6099 52.2326 25.4036 52.3726 25.1528C52.5127 24.9021 52.5794 24.617 52.5653 24.3301V23.4723L52.081 23.6868C51.5119 23.9144 50.9021 24.0227 50.2893 24.005C49.7666 24.0067 49.247 23.925 48.7501 23.7629C48.2871 23.6092 47.8625 23.3579 47.5049 23.0261C47.1287 22.6601 46.835 22.2178 46.6436 21.729C46.4107 21.1117 46.2991 20.4551 46.315 19.7955C46.2984 19.1432 46.4162 18.4945 46.6609 17.8896C46.8726 17.3841 47.1981 16.9343 47.6121 16.5752C48.0389 16.2178 48.5345 15.9517 49.0683 15.7935C49.6852 15.6141 50.3249 15.5256 50.9673 15.5306C51.6075 15.5238 52.2452 15.6124 52.8593 15.7935C53.3654 15.9484 53.8439 16.1818 54.2775 16.4853C54.4801 16.6242 54.6568 16.7974 54.7998 16.9972C54.9151 17.1914 54.9716 17.4149 54.9623 17.6406V24.3889C54.9785 24.944 54.8598 25.4947 54.6164 25.9939C54.3906 26.4342 54.0663 26.8165 53.6687 27.1111C53.2364 27.4241 52.7479 27.6507 52.2298 27.7787C51.6277 27.9355 51.0083 28.0157 50.3862 28.0174ZM51.1195 17.4227C50.8097 17.4026 50.4993 17.4501 50.2096 17.5618C49.92 17.6735 49.658 17.8467 49.4419 18.0695C49.0483 18.5572 48.8488 19.1731 48.8815 19.7989C48.8815 20.6464 49.0683 21.2517 49.4523 21.6495C49.6396 21.8456 49.866 22.0002 50.1168 22.1033C50.3677 22.2064 50.6374 22.2556 50.9085 22.2479C51.4351 22.2677 51.9527 22.1065 52.3751 21.7913L52.5065 21.6875V17.7824L52.3335 17.6821C52.1844 17.602 52.0266 17.5393 51.8631 17.4953C51.6206 17.4311 51.3703 17.4008 51.1195 17.4054V17.4227Z" fill="#0F0F1A"/>
<path d="M41.3 8.60054C46.7243 6.69593 52.4906 5.9628 58.2189 6.44949" stroke="#00BF91" stroke-width="2.5" stroke-linecap="round" stroke-linejoin="round"/>
<path d="M69.7384 8.60046C71.8003 9.22601 73.6385 10.4319 75.0335 12.074C76.4286 13.7162 77.3214 15.7252 77.6054 17.8611C77.6231 17.9984 77.6008 18.1378 77.5411 18.2627C77.4813 18.3875 77.3868 18.4924 77.2687 18.5647C75.5369 19.6412 73.577 20.2972 71.5461 20.4801C66.6178 20.8975 63.0731 18.2987 62.171 17.5985" stroke="#00BF91" stroke-width="2.5" stroke-linecap="round" stroke-linejoin="round"/>
<path d="M71.1791 20.4801C69.4621 20.9384 67.9441 21.95 66.8601 23.3583C66.1391 24.3149 65.6463 25.4238 65.4194 26.6" stroke="#00BF91" stroke-width="2.5" stroke-linecap="round" stroke-linejoin="round"/>
<path d="M63.2583 11.4787C66.0414 11.4787 68.2976 9.22249 68.2976 6.43935C68.2976 3.65621 66.0414 1.40002 63.2583 1.40002C60.4751 1.40002 58.2189 3.65621 58.2189 6.43935C58.2189 9.22249 60.4751 11.4787 63.2583 11.4787Z" stroke="#00BF91" stroke-width="2.5" stroke-linecap="round" stroke-linejoin="round"/>
<path d="M63.2582 8.24035C64.2529 8.24035 65.0592 7.43403 65.0592 6.43939C65.0592 5.44475 64.2529 4.63843 63.2582 4.63843C62.2636 4.63843 61.4573 5.44475 61.4573 6.43939C61.4573 7.43403 62.2636 8.24035 63.2582 8.24035Z" fill="#00BF91"/>
<path d="M68.2302 5.7762C69.2637 5.04235 71.031 4.66196 72.4448 5.60452C74.3973 6.91064 74.404 9.91336 73.4547 10.5934" stroke="#00BF91" stroke-width="2.5" stroke-linecap="round" stroke-linejoin="round"/>
<path d="M60.067 17.9823C59.8924 17.7144 59.7995 17.4015 59.7995 17.0818C59.7995 16.762 59.8924 16.4492 60.067 16.1813C60.2305 15.9556 60.4458 15.7725 60.6947 15.6471C60.9436 15.5218 61.219 15.4579 61.4976 15.4609" stroke="#00BF91" stroke-width="2.5" stroke-linecap="round" stroke-linejoin="round"/>
</g>
<defs>
<clipPath id="clip0">
<rect width="78.8151" height="28" fill="white"/>
</clipPath>
</defs>
</svg>
